# xmcd
#
# Track frame offsets:
#	150
#	3113
#	17456
#	30319
#	51162
#	61962
#	73920
#	88862
#	97292
#	112187
#	130012
#	148893
#	160798
#	169854
#	182471
#	192525
#	204761
#	218799
#	235304
#	249909
#	268621
#	278135
#	296098
#
# Disc length: 4067 seconds
#
# Revision: 1
# Processed by: cddbd v1.5.2PL0 Copyright (c) Steve Scherf et al.
# Submitted via: audiograbber 1.83.01
#
DISCID=4f0fe117
DTITLE=Various Artist - E.H. King Holiday Season
DYEAR=1900
DGENRE=
TTITLE0=Don Powell - Intro
TTITLE1=Loman Craig - Christmas mTime Again
TTITLE2=Joyce Leonard - Silverbell Yodel
TTITLE3=Bob Stamper - Jingle Bells Is All I Hear
TTITLE4=Chris Noel - Rooting mTooking Santa Clause
TTITLE5=Ray R. Jones - You're My New Years Resolution
TTITLE6=Arlene Renee - Not Just Another Baby
TTITLE7=Johnny Selph - All I( Want For Christmas Is My Baby
TTITLE8=Chris Chandler - Christmas Time
TTITLE9=Jeff Aschmann - Dreamtime Christmas
TTITLE10=Danny Mack - You Gave Me A Mountain
TTITLE11=Don Powell - Tennessee Christmas Boogie
TTITLE12=Jim Hall - A Christmas Tree
TTITLE13=J.Gale Kilgore - Christmas Baby
TTITLE14=Ray R. Jones - My Christmas Sweetheart
TTITLE15=Scott Harlyn - I Miss My Ex-Miss At Christmas
TTITLE16=Ray R Jones - You Don't Like Christmas
TTITLE17=Carrie Fenton - Mending Broken Dreams
TTITLE18=Ray R. Jones - Christmas Time In My Hometown
TTITLE19=Don Powell - Bubba's Old Christmas Pickup
TTITLE20=Richard Clifton - Ring Around The Christmas Tree
TTITLE21=Barbara Dunn and Don Powell - God Sent His Son
TTITLE22=Jerry H. Chaney - Jingle Jangle
EXTD=
EXTT0=
EXTT1=
EXTT2=
EXTT3=
EXTT4=
EXTT5=
EXTT6=
EXTT7=
EXTT8=
EXTT9=
EXTT10=
EXTT11=
EXTT12=
EXTT13=
EXTT14=
EXTT15=
EXTT16=
EXTT17=
EXTT18=
EXTT19=
EXTT20=
EXTT21=
EXTT22=
PLAYORDER=
